<svg width="325" height="520" viewBox="0 0 325 520" fill="none" xmlns="http://www.w3.org/2000/svg">
<g opacity="0.2">
<path fill-rule="evenodd" clip-rule="evenodd" d="M311.194 413.125C329.172 422.912 329.172 438.879 311.45 448.666L195.359 512.538C177.38 522.325 148.357 522.325 130.378 512.538L13.5164 448.666C-4.46242 438.879 -4.46242 422.912 13.2595 413.125L129.351 349.253C147.33 339.466 176.353 339.466 194.331 349.253L311.194 413.125Z" fill="#606060"/>
</g>
<path fill-rule="evenodd" clip-rule="evenodd" d="M315.56 405.913V408.489C315.56 408.746 315.56 409.004 315.303 409.004C315.046 409.004 315.303 409.262 315.046 409.519C315.019 409.714 314.929 409.895 314.789 410.034C314.789 410.292 314.532 410.292 314.532 410.549C314.532 410.807 314.276 411.064 314.276 411.322C314.276 411.579 314.019 411.579 314.019 411.837C314.019 412.095 313.762 412.352 313.762 412.61C313.762 412.867 313.505 412.867 313.505 413.125C313.505 413.382 313.248 413.64 312.991 413.897C312.734 414.155 312.734 414.155 312.734 414.412C312.734 414.67 312.221 414.928 312.221 415.185L311.964 415.443C311.707 415.958 311.193 416.215 310.937 416.73L310.68 416.988C310.423 417.246 310.166 417.761 309.652 418.018L309.139 418.533C308.882 418.791 308.625 418.791 308.625 419.048C308.625 419.306 308.111 419.306 308.111 419.563C308.111 419.821 307.598 419.821 307.341 420.079C307.084 420.336 306.827 420.336 306.57 420.594C306.314 420.851 306.057 420.851 305.8 421.109C305.543 421.366 305.286 421.366 305.029 421.624C304.772 421.881 304.516 421.881 304.259 422.139C303.976 422.41 303.618 422.59 303.231 422.654L193.561 486.526C192.534 487.041 191.763 487.556 190.736 488.071C190.479 488.071 190.222 488.328 189.965 488.328C188.938 488.844 188.167 489.101 187.14 489.616C186.998 489.616 186.883 489.732 186.883 489.874C185.897 490.332 184.864 490.678 183.801 490.904C183.063 491.197 182.282 491.371 181.489 491.419C180.9 491.625 180.3 491.797 179.692 491.934C178.921 492.192 178.151 492.192 177.38 492.449C176.609 492.707 176.096 492.707 175.582 492.707H174.812C173.784 492.964 172.757 492.964 171.73 493.222H170.959C170.348 493.18 169.736 493.268 169.161 493.479C168.134 493.479 167.106 493.737 166.336 493.737H157.86C157.165 493.779 156.469 493.691 155.805 493.479C155.035 493.479 154.264 493.222 153.751 493.222C153.237 493.222 152.467 492.964 151.696 492.964C150.903 492.916 150.123 492.743 149.384 492.449C148.871 492.449 148.1 492.192 147.587 492.192C146.559 491.934 145.789 491.677 145.018 491.419C144.248 491.161 143.734 491.161 143.22 490.904C142.707 490.646 142.707 490.646 142.193 490.646C141.296 490.416 140.433 490.069 139.625 489.616C139.368 489.616 139.111 489.359 138.854 489.359C138.04 489.125 137.262 488.778 136.542 488.328C136.286 488.071 135.772 488.071 135.515 487.813L132.433 486.268L21.992 422.396C13.5163 417.503 9.15002 411.064 9.15002 404.368V416.215C9.15002 422.654 13.5163 429.093 21.992 434.244L132.433 498.115L135.515 499.661C135.772 499.918 136.286 499.918 136.542 500.176C137.313 500.433 137.827 500.691 138.597 500.948H138.854C139.111 500.948 139.368 501.206 139.625 501.206C140.521 501.437 141.385 501.783 142.193 502.236C142.45 502.236 142.707 502.494 143.22 502.494C143.415 502.521 143.595 502.611 143.734 502.751C143.991 502.751 144.505 503.009 144.761 503.009L147.33 503.781C147.612 503.747 147.895 503.842 148.1 504.039C148.462 504 148.826 504.092 149.128 504.296C149.898 504.554 150.669 504.554 151.439 504.811C151.799 504.801 152.154 504.89 152.467 505.069H153.417C154.187 505.069 154.958 505.327 155.472 505.327H166.002C166.951 505.381 167.903 505.294 168.827 505.069H171.396C172.44 505.024 173.475 504.851 174.478 504.554H175.505C175.938 504.493 176.367 504.407 176.789 504.296C177.56 504.039 178.33 504.039 179.101 503.781C179.69 503.575 180.29 503.403 180.899 503.266C181.637 502.973 182.417 502.799 183.21 502.751C183.467 502.751 183.467 502.751 183.724 502.494C184.621 502.263 185.484 501.916 186.292 501.463C186.434 501.463 186.549 501.348 186.549 501.206C187.536 500.885 188.484 500.453 189.374 499.918C189.631 499.918 189.888 499.661 190.145 499.661C191.115 499.2 192.059 498.684 192.97 498.115L302.641 434.244C302.898 434.244 302.898 433.986 303.154 433.986C303.411 433.986 303.411 433.729 303.668 433.729C303.925 433.729 304.182 433.471 304.439 433.213C304.695 432.956 304.952 432.956 305.209 432.698C305.466 432.441 305.723 432.441 305.98 432.183C306.236 431.926 306.493 431.926 306.75 431.668C307.007 431.411 307.264 431.411 307.521 431.153C307.777 430.896 308.034 430.896 308.034 430.638C308.034 430.38 308.548 430.38 308.548 430.123L308.805 429.865L309.062 429.608L310.089 428.578L310.346 428.32C310.764 427.957 311.112 427.521 311.373 427.032L311.63 426.775C311.887 426.517 312.144 426.26 312.144 426.002C312.144 425.745 312.401 425.745 312.401 425.487C312.401 425.229 312.657 424.972 312.914 424.714C313.086 424.543 313.257 424.371 313.428 424.199C313.428 423.942 313.685 423.684 313.685 423.427C313.685 423.169 313.941 423.169 313.941 422.912C313.941 422.654 314.198 422.396 314.198 422.139V421.598C314.225 421.403 314.316 421.222 314.455 421.083C314.455 420.825 314.455 420.825 314.712 420.568C314.969 420.31 314.712 420.053 314.969 420.053V405.115C315.56 405.398 315.56 405.656 315.56 405.913Z" fill="url(#paint0_linear)"/>
<path fill-rule="evenodd" clip-rule="evenodd" d="M302.718 387.113C319.669 396.899 319.926 412.867 302.975 422.654L193.304 486.526C176.353 496.313 148.871 496.313 131.919 486.526L21.4784 422.654C4.52695 412.867 4.27011 396.899 21.2215 387.113L130.892 323.241C147.843 313.454 175.325 313.454 192.277 323.241L302.718 387.113Z" fill="url(#paint1_linear)"/>
<path fill-rule="evenodd" clip-rule="evenodd" d="M235.606 402.823C233.551 412.095 226.359 420.851 214.288 428.062C184.751 445.318 136.979 445.318 107.186 428.062C94.8574 420.851 87.6659 411.837 85.6112 402.565C82.5291 389.43 89.7206 375.78 106.929 365.736C136.465 348.48 184.494 348.48 214.031 365.736C231.573 375.78 238.765 389.688 235.606 402.823Z" fill="url(#paint2_linear)"/>
<path fill-rule="evenodd" clip-rule="evenodd" d="M235.606 402.823C233.551 412.095 226.359 420.851 214.288 428.063C184.751 445.318 136.979 445.318 107.186 428.063C94.8575 420.851 87.666 411.837 85.6113 402.565C87.666 393.294 94.8575 384.537 106.929 377.326C136.466 360.07 184.495 360.07 214.031 377.326C226.436 384.537 233.628 393.551 235.606 402.823Z" fill="url(#paint3_linear)"/>
<path fill-rule="evenodd" clip-rule="evenodd" d="M126.783 335.346C126.783 333.354 125.173 331.74 123.187 331.74C121.201 331.74 119.591 333.354 119.591 335.346C119.597 336.624 120.283 337.802 121.389 338.436L123.187 451.757L124.985 338.436C126.091 337.802 126.777 336.624 126.783 335.346Z" fill="url(#paint4_linear)"/>
<path fill-rule="evenodd" clip-rule="evenodd" d="M163.511 320.923C163.511 317.936 161.096 315.515 158.117 315.515C155.138 315.515 152.723 317.936 152.723 320.923C152.71 322.881 153.805 324.678 155.549 325.559L158.117 489.359H157.86L160.429 325.559C162.273 324.752 163.477 322.94 163.511 320.923Z" fill="url(#paint5_linear)"/>
<path fill-rule="evenodd" clip-rule="evenodd" d="M195.873 368.054C195.873 366.766 195.187 365.576 194.075 364.932C192.962 364.287 191.591 364.287 190.479 364.932C189.366 365.576 188.681 366.766 188.681 368.054C188.687 369.332 189.372 370.51 190.479 371.145L192.277 454.848L194.075 371.145C195.181 370.51 195.866 369.332 195.873 368.054Z" fill="url(#paint6_linear)"/>
<path fill-rule="evenodd" clip-rule="evenodd" d="M279.859 180.045H41.5119L84.9178 397.93C84.962 399.401 85.1338 400.866 85.4314 402.308C87.4862 411.58 94.6777 420.594 107.006 427.805C136.799 445.061 184.572 445.061 214.108 427.805C226.18 420.851 233.371 411.837 235.426 402.565C235.724 401.037 235.896 399.486 235.939 397.93L279.859 180.045Z" fill="url(#paint7_linear)"/>
<g opacity="0.7">
<path fill-rule="evenodd" clip-rule="evenodd" d="M159.742 138.269L151.109 143.353H150.093C149.585 143.353 149.078 143.353 149.078 142.845C148.537 142.797 148.109 142.369 148.062 141.828C147.554 141.32 147.554 140.811 147.046 140.303L112.006 79.3016C111.617 78.8949 111.431 78.3353 111.498 77.7765V76.5057V75.489C111.498 74.9806 112.006 74.9806 112.006 74.4723L101.341 80.5724L100.833 81.0808L135.874 142.082C135.874 142.217 135.927 142.346 136.023 142.442C136.118 142.537 136.247 142.59 136.382 142.59V143.099L145.015 138.015L194.783 109.548L205.447 103.448L159.742 138.269Z" fill="#B6E3FF"/>
<path d="M153.051 7.0415C153.051 7.0415 158.052 9.0415 165.551 14.0415C173.051 19.0415 173.713 20.1627 178.551 24.5415C182.851 28.4325 185.125 30.7745 189.051 35.0415C194.029 40.45 196.652 43.6533 201.051 49.5415C207.568 58.2634 210.878 63.4615 216.051 73.0415C222.703 85.3594 226.45 92.5137 230.052 106.042C231.234 110.483 232.029 112.561 233.051 117.042C234.168 121.936 235.106 125.111 236.051 130.042C237.973 140.059 238.154 145.842 238.052 156.041C237.995 161.717 237.705 164.484 236.551 170.042C235.459 175.302 234.686 177.611 232.551 182.542C230.99 186.148 230.314 187.329 228.051 190.542C226.062 193.366 225.051 195.042 222.051 198.042C220.06 200.033 218.382 201.542 216.051 203.041C212.588 205.271 207.051 208.541 207.051 208.541L212.051 204.042C212.051 204.042 214.269 201.862 215.551 200.041C217.769 196.893 218.83 194.986 220.551 191.541C222.984 186.676 224.178 183.804 225.552 178.541C227.289 171.886 227.303 167.916 227.552 161.041C227.77 154.989 227.548 151.577 227.052 145.541C226.257 135.88 225.374 130.454 223.052 121.042C220.937 112.468 219.343 107.735 216.051 99.5415C213.154 92.328 211.109 88.4537 207.551 81.5415C203.551 73.7672 201.467 69.2725 196.551 62.0415C193.807 58.0043 192.108 55.8477 189.051 52.0415C185.152 47.1863 178.551 40.0415 178.551 40.0415L163.051 27.0415C163.051 27.0415 154.551 20.5415 148.051 16.5415C141.552 12.5415 139.003 10.7273 132.551 8.5415C124.339 5.75909 121.051 5.0415 110.551 5.5415C100.052 6.0415 95.5515 8.5415 95.5515 8.5415C95.5515 8.5415 97.864 6.5415 102.551 4.0415C107.239 1.5415 115.051 0.541504 115.051 0.541504C115.051 0.541504 119.551 0.0415039 126.051 0.0415039C132.552 0.0415039 134.051 0.0415039 140.551 2.0415C147.052 4.0415 153.051 7.0415 153.051 7.0415Z" fill="#B6E3FF"/>
</g>
<path fill-rule="evenodd" clip-rule="evenodd" d="M226.27 158.093C226.27 105.733 189.705 42.1904 144.508 16.2649C99.3108 -9.66065 62.2389 10.6731 62.2389 63.0325C62.2389 115.392 98.803 178.427 144 204.861C189.198 231.294 226.27 210.452 226.27 158.093ZM198.846 111.326C200.369 113.359 199.862 115.901 198.846 116.409L148.57 144.876L139.937 149.96C139.169 150.474 138.166 150.474 137.398 149.96C136.318 149.385 135.433 148.499 134.859 147.418L99.8181 86.4168C98.2946 84.3834 98.8025 81.8417 99.8181 81.3333L105.912 77.7749C106.681 77.2609 107.683 77.2609 108.451 77.7749C109.532 78.3502 110.416 79.2352 110.99 80.3166L135.367 122.509C135.726 122.869 136.022 123.293 136.3 123.691C136.806 124.415 137.25 125.051 137.906 125.051C138.266 125.051 138.625 125.115 138.963 125.174C139.577 125.283 140.117 125.379 140.445 125.051L187.674 98.1087C188.442 97.5947 189.444 97.5947 190.213 98.1087C191.293 98.6839 192.177 99.569 192.752 100.65L198.846 111.326Z" fill="#109CF1"/>
<defs>
<linearGradient id="paint0_linear" x1="8.61066" y1="505.436" x2="315.637" y2="505.436" gradientUnits="userSpaceOnUse">
<stop stop-color="#0047FF"/>
<stop offset="0.54" stop-color="#0089DD"/>
<stop offset="1" stop-color="#109CF1"/>
</linearGradient>
<linearGradient id="paint1_linear" x1="481.104" y1="551.119" x2="481.104" y2="181.178" gradientUnits="userSpaceOnUse">
<stop stop-color="#4ABBFF"/>
<stop offset="0.19" stop-color="#70C9FF"/>
<stop offset="0.41" stop-color="#94D6FE"/>
<stop offset="0.65" stop-color="#B6E3FF"/>
<stop offset="1" stop-color="white"/>
</linearGradient>
<linearGradient id="paint2_linear" x1="243.288" y1="-1145.55" x2="243.288" y2="-1241.8" gradientUnits="userSpaceOnUse">
<stop stop-color="#0047FF"/>
<stop offset="0.54" stop-color="#018EE3"/>
<stop offset="1" stop-color="#109CF1"/>
</linearGradient>
<linearGradient id="paint3_linear" x1="22.9932" y1="-1302.65" x2="22.9932" y2="-1161.98" gradientUnits="userSpaceOnUse">
<stop stop-color="#0047FF"/>
<stop offset="0.54" stop-color="#0085D5"/>
<stop offset="1" stop-color="#109CF1"/>
</linearGradient>
<linearGradient id="paint4_linear" x1="126.836" y1="412.512" x2="108.544" y2="408.22" gradientUnits="userSpaceOnUse">
<stop stop-color="white" stop-opacity="0.01"/>
<stop offset="1" stop-color="white" stop-opacity="0.8"/>
</linearGradient>
<linearGradient id="paint5_linear" x1="156.58" y1="-1251.54" x2="128.396" y2="-1244.39" gradientUnits="userSpaceOnUse">
<stop stop-color="white" stop-opacity="0.01"/>
<stop offset="1" stop-color="white" stop-opacity="0.8"/>
</linearGradient>
<linearGradient id="paint6_linear" x1="190.963" y1="-1229.39" x2="169.771" y2="-1220.71" gradientUnits="userSpaceOnUse">
<stop stop-color="white" stop-opacity="0.01"/>
<stop offset="1" stop-color="white" stop-opacity="0.8"/>
</linearGradient>
<linearGradient id="paint7_linear" x1="30.3215" y1="185.505" x2="30.3215" y2="470.687" gradientUnits="userSpaceOnUse">
<stop stop-color="#109CF1" stop-opacity="0.01"/>
<stop offset="0.55" stop-color="#109CF1" stop-opacity="0.5"/>
<stop offset="0.99" stop-color="#109CF1"/>
</linearGradient>
</defs>
</svg>
